# xmcd
#
# Track frame offsets:
# 150
# 28942
# 54239
# 102131
# 131243
# 155673
# 182325
# 209804
# 232928
# 253920
# 281422
#
# Disc length: 4033 seconds
#
# Revision: 0
# Processed by: cddbd v1.5PL3 Copyright (c) Steve Scherf et al.
# Submitted via: Audion 3.0.2 (http://www.panic.com/audion/)
#
DISCID=9c0fbf0b
DTITLE=Angra - Holy Land
DYEAR=1900
DGENRE=
TTITLE0=Nothing to say
TTITLE1=Silence and distance
TTITLE2=Carolina IV
TTITLE3=Holy Land
TTITLE4=The Shaman
TTITLE5=Make believe
TTITLE6=Z.I.T.O.
TTITLE7=Freedom call
TTITLE8=Queen of the night
TTITLE9=Paintkiller
TTITLE10=Wuthering Heights
EXTD=
EXTT0=
EXTT1=
EXTT2=
EXTT3=
EXTT4=
EXTT5=
EXTT6=
EXTT7=
EXTT8=
EXTT9=
EXTT10=
PLAYORDER=
